<svg xmlns="http://www.w3.org/2000/svg" width="540" height="91" viewBox="0 0 540 91"><g><g><g><g opacity=".8"><g><text dominant-baseline="text-before-edge" style="line-height:25px;font-kerning:normal" fill="#fff" font-family="'Livvic-SemiBold','Livvic-SemiBold'" font-size="15" transform="translate(95 44)"><tspan style="line-height:25px;font-kerning:normal">Our network is made up of highly experienced professionals who are passionate about what they do.</tspan></text></g></g><g><g><text dominant-baseline="text-before-edge" style="line-height:28px;font-kerning:normal" fill="#f67e7e" font-family="'Livvic-Bold','Livvic-Bold'" font-size="18" transform="translate(95)"><tspan style="line-height:28px;font-kerning:normal">Experienced Individuals</tspan></text></g></g></g><g><g><path fill="#2c6269" d="M44 72c15.464 0 28-12.536 28-28S59.464 16 44 16 16 28.536 16 44s12.536 28 28 28z"/></g><g><g><path fill="#79c8c7" d="M37.83 47.6v5.6a.932.932 0 0 1-.933.933c-.516 0-.897-.417-.897-.933v-5.6c0-.516.38-.933.897-.933.516 0 .933.417.933.933zm-18.667 0v5.6a.933.933 0 1 1-1.866 0v-5.6a.933.933 0 1 1 1.866 0zM31 24a7.197 7.197 0 0 1-5.145 2.133h-.158v-1.866h.158a5.414 5.414 0 0 0 3.849-1.594zm-2.503-3.467V22.4h-2.8a.95.95 0 0 1-.773-.4.956.956 0 0 1-.094-.88l1.866-4.666 1.734.693-1.355 3.386zm2.8-2.8c0-1.03.835-1.866 1.866-1.866 1.031 0 1.837.835 1.837 1.866 0 1.031-.806 1.867-1.837 1.867a1.867 1.867 0 0 1-1.866-1.867zm-11.2 0c0-1.03.835-1.866 1.903-1.866 1 0 1.83.835 1.83 1.866 0 1.031-.83 1.867-1.83 1.867-1.068 0-1.903-.836-1.903-1.867zM20 11.2h-.837c-.316 0-.628-.023-.933-.067v2.927c.713-.645 1.496-1.605 1.77-2.86zm-3.637 5.6c-1.029 0-1.866.837-1.866 1.867s.837 1.866 1.866 1.866h.07l-.067-.861V16.8zm16.867-5.6H21.896c-.414 2.8-2.638 4.552-3.666 5.203V19.6l.221 2.84c.023.267.06.56.107.81.883 4.971 5.646 8.297 10.615 7.415a9.328 9.328 0 0 0 7.53-8.593l.197-2.545-.001-3.123C35.87 15.754 33.645 14 33.23 11.2zm5.533 9.333c1.03 0 1.867-.837 1.867-1.866 0-1.03-.837-1.867-1.867-1.867v2.8l-.07.933zM35.13 11.2c.271 1.256 1.054 2.216 1.768 2.861l-.001-2.861zM20.097 37.539c0-.539.418-.934.903-.934h.189c.448-.076.811-.467.811-.926v-1.146h-3a2.65 2.65 0 0 0-2.636 2.65 2.637 2.637 0 0 0 .44 1.5l3.293 4.913zm9.417-5.04a11.1 11.1 0 0 1-1.94.173c-1.3 0-2.574-.23-3.744-.672v3.672A2.815 2.815 0 0 1 22 38.326v2.123a7.507 7.507 0 0 0 5.563 2.484c2.147 0 4.17-.933 5.6-2.485v-2.123a2.798 2.798 0 0 1-1.866-2.661V32c-.572.213-1.168.38-1.783.5zm3.65 3.173a.934.934 0 0 0 .774.933h.159c.516 0 .903.395.903.934v6.058l3.324-4.916a2.63 2.63 0 0 0 .44-1.488c0-1.47-1.19-2.66-2.651-2.66h-2.95zm5.6-25.405v4.666a3.737 3.737 0 0 1 3.733 3.734 3.737 3.737 0 0 1-3.734 3.733h-.212a11.184 11.184 0 0 1-5.388 8.701v1.566h2.95a4.522 4.522 0 0 1 4.514 4.726l.122.008c4.251.599 7.348 4.142 7.348 8.332V56H46.23V45.733a6.553 6.553 0 0 0-5.668-6.475l-.405-.026c-.083.167-.157.329-.28.485L35 47v9h-1.837V43a9.649 9.649 0 0 1-5.6 1.8A9.451 9.451 0 0 1 22 43v13h-1.903v-9l-4.845-7.28a2.012 2.012 0 0 1-.252-.487l-.497.03c-3.17.426-5.606 3.21-5.606 6.47V56H7V45.733c0-4.19 3.162-7.733 7.317-8.326l.182-.012a4.517 4.517 0 0 1 4.5-4.728h3.001v-1.535a10.929 10.929 0 0 1-5.409-8.542l-.014-.19h-.214a3.737 3.737 0 0 1-3.733-3.733 3.737 3.737 0 0 1 3.733-3.734h.002l-.001-4.364a6.541 6.541 0 0 1-3.734-5.902c0-.516.37-.934.933-.934h.502a3.705 3.705 0 0 1-.502-1.866V.933c0-.515.437-.933.934-.933h14c5.66 0 10.266 4.606 10.266 10.267zm-19.6-.934h17.68c-.465-4.194-4.03-7.466-8.347-7.466H15.43c0 1.03.837 1.866 1.867 1.866a.934.934 0 0 1 0 1.867H14.59c.409 2.127 2.32 3.733 4.572 3.733z"/></g><g/></g></g></g></g></svg>